<?xml version="1.0" encoding="UTF-8"?>
<svg version="1.1" xmlns="http://www.w3.org/2000/svg" width="755" height="142">
<path d="M0 0 C4.62 0 9.24 0 14 0 C14 7.92 14 15.84 14 24 C15.835625 22.68 17.67125 21.36 19.5625 20 C24.48609756 16.54954993 29.52444944 13.42358966 34.8125 10.5625 C35.4094165 10.23314453 36.00633301 9.90378906 36.62133789 9.56445312 C43.06264385 6.16598356 49.81810066 3.81978056 57 6 C59.97832325 8.04464255 62.46045757 10.44061739 65 13 C65.680625 13.62390625 66.36125 14.2478125 67.0625 14.890625 C70.46742088 18.26808684 72.4688175 20.86835942 72.75 25.75 C71.19252089 45.0568637 54.59297699 63.00410782 42.25390625 76.5234375 C40.7257804 78.20252205 39.21314142 79.89580823 37.71484375 81.6015625 C33.10068101 86.84097199 28.36332008 91.54007603 23 96 C22.12859375 96.75925781 21.2571875 97.51851563 20.359375 98.30078125 C7.91958032 108.99434807 -9.36901737 123.66811893 -26.59765625 123.47265625 C-31.17467128 122.57213784 -33.87850125 119.26712648 -37 116 C-37.66644531 115.35546875 -38.33289063 114.7109375 -39.01953125 114.046875 C-44.86660353 108.37843018 -44.86660353 108.37843018 -45.375 103.125 C-45.17990578 89.57679043 -34.71975594 76.29300793 -27 66 C-34.92 65.67 -42.84 65.34 -51 65 C-51 60.38 -51 55.76 -51 51 C-46.89787819 49.49419564 -42.79350893 47.99513502 -38.6875 46.5 C-37.52025391 46.07074219 -36.35300781 45.64148437 -35.15039062 45.19921875 C-34.03212891 44.79316406 -32.91386719 44.38710938 -31.76171875 43.96875 C-30.2142395 43.40317383 -30.2142395 43.40317383 -28.63549805 42.82617188 C-26 42 -26 42 -23 42 C-29.82626992 33.84177497 -37.43799837 26.46720316 -45 19 C-41.16171005 14.46548035 -37.25222428 10.15098084 -33 6 C-29.43235715 7.51376081 -27.16293713 9.60513129 -24.453125 12.3515625 C-23.60878906 13.20234375 -22.76445313 14.053125 -21.89453125 14.9296875 C-20.58548828 16.26386719 -20.58548828 16.26386719 -19.25 17.625 C-18.36183594 18.5221875 -17.47367188 19.419375 -16.55859375 20.34375 C-14.36783031 22.55807004 -12.18187237 24.77692435 -10 27 C-7.15169652 20.31504921 -4.42804087 13.66366895 -2.1875 6.75 C-1.97158203 6.08871094 -1.75566406 5.42742188 -1.53320312 4.74609375 C-1.01778392 3.16547485 -0.50819006 1.58295797 0 0 Z M19 40 C18.05769531 40.5465625 17.11539063 41.093125 16.14453125 41.65625 C13.19986199 44.87446777 13.48363744 47.21553652 13.56054688 51.4609375 C13.62338867 52.84152344 13.62338867 52.84152344 13.6875 54.25 C13.71005859 55.18585937 13.73261719 56.12171875 13.75585938 57.0859375 C13.81469405 59.39225674 13.89682854 61.69530838 14 64 C25.56992572 65.56122988 25.56992572 65.56122988 36.13671875 61.85546875 C38.2974951 59.25627401 40.1379363 56.72042435 41.87744141 53.83544922 C43.04635701 51.92420356 44.3056997 50.10960271 45.60546875 48.28515625 C52.37728009 38.68004988 58.75262667 28.68634132 61 17 C45.67099126 17 30.480393 30.82816429 19 40 Z M-13.80078125 72.37890625 C-14.33372803 73.26280029 -14.33372803 73.26280029 -14.87744141 74.16455078 C-16.04635701 76.07579644 -17.3056997 77.89039729 -18.60546875 79.71484375 C-25.37728009 89.31995012 -31.75262667 99.31365868 -34 111 C-28.5830661 110.48975977 -24.28978011 109.06022713 -19.4375 106.5625 C-18.74640137 106.21123047 -18.05530273 105.85996094 -17.34326172 105.49804688 C-10.62520919 101.97855513 -4.58649286 97.76327537 1.41015625 93.14355469 C3 92 3 92 6.09375 90.2890625 C9.27648641 88.38478482 11.01399955 87.15791963 13 84 C14.18182862 77.41032527 13.61551774 70.62865261 13 64 C-2.70555778 62.23235934 -2.70555778 62.23235934 -13.80078125 72.37890625 Z " fill="#FFB800" transform="translate(68,7)"/>
<path d="M0 0 C6.27 0 12.54 0 19 0 C21.99080404 7.33089062 24.72404695 14.71794742 27.3359375 22.19140625 C27.73777252 23.33552475 28.13960754 24.47964325 28.55361938 25.65843201 C29.82944705 29.29241142 31.10230032 32.92742407 32.375 36.5625 C33.2211516 38.97468044 34.06750411 41.38679042 34.9140625 43.79882812 C36.53960413 48.43084883 38.16418059 53.0632062 39.78808594 57.69580078 C42.51362347 65.46802704 45.2536225 73.23511664 48 81 C54.26101868 72.34391642 59.95225207 63.34351686 65.57128906 54.26074219 C66.5215567 52.75707193 67.50296738 51.2726268 68.51464844 49.80957031 C68.98161133 49.12217773 69.44857422 48.43478516 69.9296875 47.7265625 C70.35233887 47.12666504 70.77499023 46.52676758 71.21044922 45.90869141 C72.31414008 43.2405853 71.83575231 41.73093119 71 39 C69.98270816 36.8306468 69.98270816 36.8306468 68.6640625 34.734375 C68.18163086 33.93435059 67.69919922 33.13432617 67.20214844 32.31005859 C66.68168945 31.46523926 66.16123047 30.62041992 65.625 29.75 C65.09422852 28.87553223 64.56345703 28.00106445 64.01660156 27.10009766 C59.91442392 20.38092983 55.67174761 13.75515622 51.30322266 7.20605469 C48 2.20902848 48 2.20902848 48 0 C54.02558152 -1.27815366 60.13295144 -2.38492975 66 0 C71.320541 5.01988096 74.4539224 11.89010818 77.65869141 18.37109375 C79.547388 22.07285657 81.74257051 25.51311437 84 29 C86.90656748 25.58721508 88.94817969 22.32670166 90.8203125 18.26171875 C99.18580051 1.30057033 99.18580051 1.30057033 104.41210938 -1.11474609 C109.77783032 -2.09706972 114.75182053 -1.28526844 120 0 C118.48348152 5.65083673 115.65306658 10.02768958 112.5 14.875 C111.9726123 15.70273926 111.44522461 16.53047852 110.90185547 17.38330078 C108.28167417 21.4930964 105.62369948 25.57366413 102.9140625 29.625 C102.44291016 30.34316895 101.97175781 31.06133789 101.48632812 31.80126953 C100.59682515 33.15626205 99.69238887 34.50159946 98.77148438 35.83544922 C97.39305247 37.86103276 97.39305247 37.86103276 96 41 C97.12009514 44.79258916 99.09141991 47.9547202 101.1953125 51.28125 C101.8255835 52.282771 102.45585449 53.28429199 103.10522461 54.31616211 C103.77175049 55.36682861 104.43827637 56.41749512 105.125 57.5 C106.4833234 59.6573944 107.84139823 61.81494531 109.19921875 63.97265625 C109.85325684 65.00922363 110.50729492 66.04579102 111.18115234 67.11376953 C113.44879748 70.71217232 115.70164789 74.31927193 117.9375 77.9375 C118.54464844 78.91589844 119.15179687 79.89429687 119.77734375 80.90234375 C121 83 121 83 121 84 C114.67961413 85.19003081 108.16980657 86.32697716 102 84 C96.91552818 79.33411669 94.18646143 72.7792209 91.31396484 66.61767578 C89.24586319 62.4976115 86.65848191 58.75771163 84 55 C83.5968457 55.66531738 83.19369141 56.33063477 82.77832031 57.01611328 C80.93690391 60.05323401 79.09347063 63.08912574 77.25 66.125 C76.29867187 67.69507812 76.29867187 67.69507812 75.328125 69.296875 C74.709375 70.31523438 74.090625 71.33359375 73.453125 72.3828125 C72.88754883 73.31496582 72.32197266 74.24711914 71.73925781 75.20751953 C71.16530273 76.12903809 70.59134766 77.05055664 70 78 C69.43474609 79.09376953 68.86949219 80.18753906 68.28710938 81.31445312 C66 84 66 84 62.33300781 84.68115234 C60.87270224 84.6802075 59.4121707 84.64659135 57.953125 84.5859375 C57.18192322 84.57744781 56.41072144 84.56895813 55.6161499 84.56021118 C53.15932903 84.52669295 50.70582372 84.45142904 48.25 84.375 C46.58207875 84.34489779 44.91410591 84.31752241 43.24609375 84.29296875 C39.16279019 84.22690845 35.08195661 84.12340799 31 84 C29.99513105 81.04329782 28.99693976 78.08438423 28 75.125 C27.71382812 74.28324219 27.42765625 73.44148438 27.1328125 72.57421875 C26.86210938 71.76855469 26.59140625 70.96289062 26.3125 70.1328125 C26.06113281 69.38918457 25.80976562 68.64555664 25.55078125 67.87939453 C25 66 25 66 25 64 C14.77 64 4.54 64 -6 64 C-6.99 67.63 -7.98 71.26 -9 75 C-9.97823519 78.00716742 -10.9706377 81.00994762 -12 84 C-17.61 84 -23.22 84 -29 84 C-28.29293031 80.46465154 -27.55455249 77.44759195 -26.39282227 74.08740234 C-26.06448898 73.13302277 -25.7361557 72.17864319 -25.39787292 71.19534302 C-25.04098892 70.1692392 -24.68410492 69.14313538 -24.31640625 68.0859375 C-23.94481888 67.01028534 -23.57323151 65.93463318 -23.19038391 64.8263855 C-21.98482056 61.34128472 -20.77398641 57.85804583 -19.5625 54.375 C-19.15493469 53.19981812 -18.74736938 52.02463623 -18.32745361 50.81384277 C-12.42459954 33.7962852 -6.41654814 16.83134738 0 0 Z M9 19 C7.56991979 23.07306621 6.14592905 27.14819426 4.72753906 31.2253418 C4.24418208 32.61199243 3.75916689 33.99806621 3.27246094 35.38354492 C2.57310047 37.37529498 1.87973282 39.36904455 1.1875 41.36328125 C0.76855469 42.56251221 0.34960938 43.76174316 -0.08203125 44.99731445 C-1.14617939 47.95484259 -1.14617939 47.95484259 -1 51 C5.93 51 12.86 51 20 51 C18.32393575 43.39507599 18.32393575 43.39507599 16.0546875 36.08984375 C15.52294922 34.57680664 15.52294922 34.57680664 14.98046875 33.03320312 C14.61566406 32.01162109 14.25085938 30.99003906 13.875 29.9375 C13.50246094 28.88111328 13.12992188 27.82472656 12.74609375 26.73632812 C11.83534623 24.15587683 10.91990295 21.57719856 10 19 C9.67 19 9.34 19 9 19 Z " fill="#5E49EA" transform="translate(634,24)"/>
<path d="M0 0 C4.62 0 9.24 0 14 0 C14 25.08 14 50.16 14 76 C9.38 76 4.76 76 0 76 C-0.33 75.34 -0.66 74.68 -1 74 C-1.721875 74.474375 -2.44375 74.94875 -3.1875 75.4375 C-8.51747169 78.39859538 -14.23439552 78.78783924 -20.203125 77.5390625 C-26.90622788 75.60109058 -31.83099306 72.55694662 -35.5078125 66.52734375 C-39.94888938 57.9116546 -41.36734927 50.45240985 -38.875 40.9375 C-36.55418169 34.01802319 -33.00139579 28.92820411 -26.75 25.0625 C-18.89500998 21.18105602 -12.11192189 21.48057522 -3.93359375 24.2109375 C-2 25 -2 25 -1 26 C-0.67 17.42 -0.34 8.84 0 0 Z M-24 42 C-25.72666189 47.17998568 -25.90972877 52.79749878 -23.8125 57.875 C-20.1285247 62.33562876 -20.1285247 62.33562876 -14.8515625 64.3515625 C-10.10746007 64.52493501 -6.77672011 64.11024009 -3 61 C0.53611967 56.95872038 1.30951547 53.43109299 1.2109375 48.05859375 C0.72946622 43.35979066 -1.22287029 40.68676579 -4.6875 37.625 C-12.00855702 34.03353806 -18.75033031 35.70039637 -24 42 Z " fill="#27274B" transform="translate(447,32)"/>
<path d="M0 0 C0.33 -0.99 0.66 -1.98 1 -3 C5.62 -3 10.24 -3 15 -3 C15 14.49 15 31.98 15 50 C10.38 50 5.76 50 1 50 C0.67 49.34 0.34 48.68 0 48 C-0.721875 48.474375 -1.44375 48.94875 -2.1875 49.4375 C-7.51747169 52.39859538 -13.23439552 52.78783924 -19.203125 51.5390625 C-25.90622788 49.60109058 -30.83099306 46.55694662 -34.5078125 40.52734375 C-38.94888938 31.9116546 -40.36734927 24.45240985 -37.875 14.9375 C-35.50942482 7.88458139 -31.95201429 2.86419192 -25.5 -0.9375 C-16.92718586 -5.181043 -8.26689356 -4.87534749 0 0 Z M-22.875 16.125 C-24.80352198 21.05344506 -24.83830322 25.99887447 -23.4140625 31.09765625 C-21.65908579 34.88937199 -19.43575267 36.59134281 -15.6875 38.0625 C-11.21973199 39.23629783 -8.24386207 39.0403183 -4 37 C0.11037737 33.2516766 1.88442144 29.76257298 2.25 24.1875 C2.1752566 20.11398449 1.33307542 17.42184395 -1 14 C-4.87986928 10.57127831 -7.96663654 9.33180203 -13.04296875 9.61328125 C-17.34519008 10.46342079 -20.05310818 12.92685593 -22.875 16.125 Z " fill="#27274B" transform="translate(386,58)"/>
<path d="M0 0 C0.66 -0.99 1.32 -1.98 2 -3 C6.29 -3 10.58 -3 15 -3 C15 14.49 15 31.98 15 50 C10.38 50 5.76 50 1 50 C1 49.34 1 48.68 1 48 C0.3709375 48.28875 -0.258125 48.5775 -0.90625 48.875 C-8.84279865 52.31735845 -14.00735805 53.29489774 -22.1875 50.25 C-29.3845175 47.08067119 -33.55364114 43.04310428 -37 36 C-40.00442553 27.91913134 -39.52233286 19.22686088 -36.375 11.25 C-33.0870095 4.60254095 -27.953654 -0.33689847 -21 -3 C-13.59652653 -4.97425959 -6.56231962 -3.87008593 0 0 Z M-22.875 16.125 C-24.90380301 21.30971881 -24.94090071 26.72202987 -22.8125 31.875 C-20.10237365 35.05238952 -17.58513439 37.41600312 -13.625 38.875 C-9.93427907 39.05074862 -7.42401831 38.40629324 -4 37 C-0.95903967 34.20075703 1.77702977 31.03231882 2.23828125 26.828125 C2.40568873 21.01291787 2.06897793 17.50886743 -2 13 C-5.4621961 10.11483658 -8.48796884 9.46082135 -13.0078125 9.6484375 C-17.33956346 10.41286414 -20.05177247 12.92534214 -22.875 16.125 Z " fill="#28284B" transform="translate(269,58)"/>
<path d="M0 0 C5.16374524 5.39728146 8.22105035 13.05479024 8.6796875 20.5 C8.22038227 27.95605485 5.15152039 35.56766544 0.01953125 41 C-6.94075488 46.67462818 -14.92643799 49.09292497 -23.8203125 48.5 C-32.77633093 46.37431325 -39.54126038 42.08377103 -44.8203125 34.5 C-48.72452892 27.72976703 -49.13726086 19.4934292 -47.1640625 12.01171875 C-44.22902251 4.68676981 -39.48510971 -1.55502757 -32.2578125 -4.9375 C-20.89330642 -9.26136932 -9.51860002 -7.84365324 0 0 Z M-31.6328125 12.25 C-33.38497591 15.56988857 -33.93815998 18.79127058 -33.8203125 22.5 C-32.34600732 27.15570057 -30.62811868 30.40615748 -26.8203125 33.5 C-23.09179908 34.74283781 -19.69284489 35.0280726 -15.8203125 34.5 C-11.4598838 32.27864953 -8.61818888 30.09457298 -6.8203125 25.5 C-6.14000139 20.48585513 -6.26662912 16.67125329 -8.4453125 12.0625 C-12.06368923 8.15846195 -15.04902087 6.72141145 -20.3203125 6.0625 C-25.2941248 6.68422654 -28.08784868 8.82727631 -31.6328125 12.25 Z " fill="#28284B" transform="translate(574.8203125,61.5)"/>
<path d="M0 0 C6.05849347 5.8947504 8.46415722 11.99424456 8.625 20.375 C8.6592613 28.30649186 6.75060088 33.41869862 2.5625 40 C-3.65515571 46.21765571 -10.37719155 48.75830477 -19.0625 49.5625 C-29.3022789 48.67976044 -35.87543797 45.03166209 -42.6875 37.25 C-47.4131612 30.59997161 -47.61997579 23.16162445 -46.6875 15.25 C-45.00235583 8.08065884 -41.63902624 2.62920522 -35.6875 -1.75 C-23.2248052 -8.76160188 -11.74833174 -7.65007648 0 0 Z M-28.6875 10.25 C-31.77855784 14.21623687 -33.0272598 17.91763288 -32.625 22.9375 C-31.78936297 27.74448134 -30.32054736 30.85710667 -26.5625 34.0625 C-22.5167614 35.73356594 -19.00281033 35.92735912 -14.6875 35.25 C-10.94223434 33.44672394 -9.14624584 31.92282723 -6.8125 28.5 C-5.21631446 23.88879734 -4.75585345 19.89229699 -6.37890625 15.2890625 C-8.61749892 10.84934315 -11.02633341 8.8037222 -15.6875 7.25 C-20.88303189 6.69333587 -24.39764881 7.19943916 -28.6875 10.25 Z " fill="#27274B" transform="translate(513.6875,60.75)"/>
<path d="M0 0 C5.68422052 -1.15166079 11.4534751 -2.15881972 17 0 C21.8860646 4.45475524 24.71324716 10.64821007 27.65380859 16.47607422 C29.8070977 20.5131984 32.38611694 24.25008969 35 28 C36.05099378 26.44289241 37.10100948 24.88511777 38.14672852 23.32446289 C39.05690235 21.97127101 39.97420288 20.62284821 40.89819336 19.27905273 C43.14391689 15.97363692 45.19644125 12.75382238 46.84765625 9.109375 C48.62772947 5.42758346 49.99040067 2.78445373 53 0 C58.56361535 -1.52684155 64.36362531 -0.74938163 70 0 C68.3583246 4.90582533 65.57289404 8.82634891 62.6875 13.0625 C61.90475708 14.25649414 61.90475708 14.25649414 61.10620117 15.47460938 C58.36308415 19.63955572 55.55122326 23.60612982 52.3515625 27.43359375 C40.22857683 42.6649103 41.34177911 58.39716685 42 77 C37.38 77 32.76 77 28 77 C28.06703125 74.75445312 28.1340625 72.50890625 28.203125 70.1953125 C28.49707595 53.15984495 28.41140567 40.49868988 16.76855469 27.14404297 C13.42453665 23.0900443 10.69882622 18.61117588 7.875 14.1875 C7.3190918 13.34396973 6.76318359 12.50043945 6.19042969 11.63134766 C5.67125977 10.83905762 5.15208984 10.04676758 4.6171875 9.23046875 C4.15940918 8.53332764 3.70163086 7.83618652 3.22998047 7.11791992 C1.89355401 4.81670922 0.9314416 2.48955363 0 0 Z " fill="#28284B" transform="translate(177,32)"/>
<path d="M0 0 C2.375 2.5625 2.375 2.5625 4 5 C4.3594873 5.52625977 4.71897461 6.05251953 5.08935547 6.59472656 C6.50105518 10.32343047 6.24431594 13.97014212 6.1953125 17.921875 C6.1924826 18.78186096 6.18965271 19.64184692 6.18673706 20.52789307 C6.1755615 23.26873821 6.15046179 26.00925398 6.125 28.75 C6.1149668 30.61067236 6.10584155 32.47134985 6.09765625 34.33203125 C6.07563076 38.88814732 6.04111897 43.44401786 6 48 C1.38 48 -3.24 48 -8 48 C-8.00410889 46.99622314 -8.00821777 45.99244629 -8.01245117 44.95825195 C-8.03428312 41.22108156 -8.08861294 37.48495799 -8.15258789 33.74829102 C-8.17573286 32.13348451 -8.19015543 30.51852779 -8.19555664 28.90356445 C-8.20487274 26.57668852 -8.24591368 24.25216324 -8.29296875 21.92578125 C-8.2890361 21.20787918 -8.28510345 20.48997711 -8.28105164 19.75032043 C-8.39479075 15.8110285 -8.8887877 14.13601108 -11.4152832 11.04614258 C-13.92413149 9.06005988 -14.87652672 8.31202675 -18 8.375 C-18.639375 8.36210938 -19.27875 8.34921875 -19.9375 8.3359375 C-23.28160887 9.41263922 -24.79627826 11.30443183 -27 14 C-27.49553285 16.82807138 -27.69977204 19.07016316 -27.671875 21.890625 C-27.68462463 22.63584412 -27.69737427 23.38106323 -27.71051025 24.14886475 C-27.74670124 26.51630128 -27.74951857 28.88231162 -27.75 31.25 C-27.7715971 33.63144011 -27.7999984 36.01266479 -27.83233643 38.39398193 C-27.850136 39.87295357 -27.86038595 41.35203847 -27.86248779 42.83111572 C-27.89147777 47.89147777 -27.89147777 47.89147777 -29 49 C-31.35313555 49.07271741 -33.70833668 49.08370868 -36.0625 49.0625 C-37.35285156 49.05347656 -38.64320313 49.04445312 -39.97265625 49.03515625 C-40.97167969 49.02355469 -41.97070312 49.01195312 -43 49 C-43.02526648 41.47030348 -43.04283141 33.9406178 -43.05493164 26.41088867 C-43.0599737 23.84708243 -43.06680714 21.28327909 -43.07543945 18.71948242 C-43.08751064 15.04344979 -43.09322942 11.36745502 -43.09765625 7.69140625 C-43.10281754 6.53725723 -43.10797882 5.38310822 -43.11329651 4.19398499 C-43.11337204 3.13296066 -43.11344757 2.07193634 -43.11352539 0.97875977 C-43.115746 0.03944107 -43.11796661 -0.89987762 -43.12025452 -1.86766052 C-43 -4 -43 -4 -42 -5 C-39.8579034 -5.15154969 -37.70976538 -5.22177745 -35.5625 -5.25 C-34.38816406 -5.27578125 -33.21382813 -5.3015625 -32.00390625 -5.328125 C-31.01261719 -5.21984375 -30.02132813 -5.1115625 -29 -5 C-28.34 -4.01 -27.68 -3.02 -27 -2 C-26.278125 -2.474375 -25.55625 -2.94875 -24.8125 -3.4375 C-16.25268912 -8.19295049 -7.32181919 -5.92718696 0 0 Z " fill="#27274B" transform="translate(335,60)"/>
<path d="M0 0 C1.44272126 0.03392921 2.88453779 0.11136556 4.32421875 0.2109375 C6.86109375 0.3346875 9.39796875 0.4584375 12.01171875 0.5859375 C12.01171875 5.8659375 12.01171875 11.1459375 12.01171875 16.5859375 C-0.36328125 21.0409375 -0.36328125 21.0409375 -12.98828125 25.5859375 C-8.39647679 31.00563085 -8.39647679 31.00563085 -3.55859375 36.11328125 C-2.99140625 36.67724609 -2.42421875 37.24121094 -1.83984375 37.82226562 C-1.27007812 38.38365234 -0.7003125 38.94503906 -0.11328125 39.5234375 C0.4796875 40.11189453 1.07265625 40.70035156 1.68359375 41.30664062 C3.12398341 42.73541424 4.56751545 44.16101882 6.01171875 45.5859375 C2.19507123 50.13649646 -1.7369966 54.43587392 -5.98828125 58.5859375 C-9.35163719 57.12848326 -11.5336213 55.27475896 -14.09765625 52.671875 C-14.85175781 51.91132812 -15.60585937 51.15078125 -16.3828125 50.3671875 C-17.16011719 49.573125 -17.93742187 48.7790625 -18.73828125 47.9609375 C-19.53105469 47.15914062 -20.32382813 46.35734375 -21.140625 45.53125 C-23.09442618 43.55390904 -25.04340228 41.57204841 -26.98828125 39.5859375 C-27.25568115 40.30773193 -27.52308105 41.02952637 -27.79858398 41.77319336 C-29.00481718 45.02433395 -30.21524069 48.27389842 -31.42578125 51.5234375 C-31.84666016 52.65974609 -32.26753906 53.79605469 -32.70117188 54.96679688 C-33.10400391 56.04638672 -33.50683594 57.12597656 -33.921875 58.23828125 C-34.29368896 59.23851318 -34.66550293 60.23874512 -35.04858398 61.26928711 C-35.98828125 63.5859375 -35.98828125 63.5859375 -36.98828125 64.5859375 C-39.68482979 64.65913371 -42.35519583 64.67836287 -45.05078125 64.6484375 C-45.80939453 64.64392578 -46.56800781 64.63941406 -47.34960938 64.63476562 C-49.22919996 64.6229443 -51.10875024 64.60500828 -52.98828125 64.5859375 C-53.76201665 59.25576033 -54.46447484 53.84810311 -52.98828125 48.5859375 C-49.75691936 44.7849445 -46.03497262 42.46947296 -41.84033203 39.83837891 C-38.69264739 37.70977066 -35.98815648 35.13432692 -33.23828125 32.5234375 C-32.6956665 32.01337158 -32.15305176 31.50330566 -31.59399414 30.9777832 C-30.05179664 29.52093767 -28.51894657 28.05488245 -26.98828125 26.5859375 C-26.16328125 25.8021875 -25.33828125 25.0184375 -24.48828125 24.2109375 C-19.65647713 19.51335016 -15.33785991 14.52291082 -11.12890625 9.26171875 C-10.06929687 7.93720703 -10.06929687 7.93720703 -8.98828125 6.5859375 C-8.24707031 5.49410156 -7.50585938 4.40226562 -6.7421875 3.27734375 C-3.584311 0.19113537 -3.584311 0.19113537 0 0 Z " fill="#FFB800" transform="translate(133.98828125,70.4140625)"/>
</svg>
